<svg width="82" height="82" viewBox="0 0 82 82" fill="none" xmlns="http://www.w3.org/2000/svg">
<g clip-path="url(#clip0_211_9)">
<path d="M27.9127 28.3475H26.9024L28.4198 24.0031H29.6649C30.5812 24.0031 30.8005 24.5199 30.3893 25.6946L30.0683 26.6109C29.6121 27.9207 28.8779 28.3475 27.9127 28.3475ZM41.9484 43.1663C41.1261 43.1663 40.4526 43.6147 40.0415 44.7874L36.9383 53.6603C36.5272 54.837 36.8894 55.2814 37.7116 55.2814C38.5339 55.2814 39.2055 54.8331 39.6166 53.6603L42.7198 44.7874C43.129 43.6147 42.7707 43.1663 41.9484 43.1663ZM27.7032 34.1231L28.2024 32.6919C28.7369 31.1648 28.4061 30.6949 27.2333 30.6949H26.0821L24.3181 35.7442H25.7982C26.6655 35.7403 27.2744 35.3409 27.7032 34.1231ZM79.3333 48.6561C80.2985 50.1401 80.5393 51.9805 79.9931 53.6701C79.4488 55.3558 78.1684 56.7028 76.5159 57.3371L67.9935 60.6126L67.5138 69.7263C67.4198 71.4962 66.5329 73.129 65.1018 74.1726C63.6686 75.2161 61.84 75.5528 60.1308 75.0967L51.3127 72.7336L45.5645 79.8268C44.4505 81.2032 42.7727 82.002 41.0008 82.002C39.229 82.002 37.5531 81.2032 36.4371 79.8268L30.6909 72.7336L21.8747 75.0967C20.1616 75.5528 18.3369 75.2181 16.9018 74.1726C15.4687 73.131 14.5818 71.4982 14.4878 69.7263L14.0081 60.6126L5.48765 57.3371C3.83328 56.7048 2.55481 55.3558 2.00857 53.6701C1.46038 51.9864 1.70315 50.1441 2.66836 48.6561L7.63931 40.999L2.66836 33.3439C1.70315 31.8579 1.46038 30.0156 2.00857 28.3299C2.55481 26.6442 3.83328 25.2972 5.48765 24.6609L14.0081 21.3874L14.4898 12.2756C14.5818 10.5057 15.4687 8.87487 16.9018 7.83134C18.335 6.79173 20.1655 6.45498 21.8728 6.9092L30.6889 9.26839L36.4371 2.17515C37.5531 0.798796 39.229 0 41.0008 0C42.7727 0 44.4505 0.798796 45.5645 2.17515L51.3127 9.26839L60.1308 6.90724C61.8439 6.45107 63.6706 6.78781 65.1018 7.82938C66.531 8.87095 67.4218 10.5038 67.5119 12.2737L67.9915 21.3874L76.5159 24.6609C78.1684 25.2952 79.4488 26.6442 79.9911 28.3299C80.5393 30.0136 80.2965 31.8559 79.3313 33.3439L74.3604 40.999L79.3333 48.6561ZM54.7585 23.9991L49.8287 38.0877H52.4111L57.3389 23.9991H60.0427L60.8611 21.6517H52.881L52.0587 23.9991H54.7585ZM43.1368 25.5967C41.4961 30.2916 46.3202 30.926 45.1377 34.3071C44.7266 35.4818 44.0609 35.9047 43.2386 35.9047C42.4163 35.9047 42.0502 35.4818 42.4614 34.3071L42.8686 33.1324H40.4272L40.0748 34.1427C39.1565 36.7721 39.9455 38.2737 42.4809 38.2737C45.0163 38.2737 46.8567 36.7701 47.7769 34.1427C49.4234 29.4458 44.5934 28.8115 45.776 25.4303C46.1891 24.2556 46.8156 23.8092 47.634 23.8092C48.4562 23.8092 48.7695 24.2576 48.3564 25.4303L48.1234 26.1116H50.5609L50.7469 25.5948C51.6671 22.9654 50.8996 21.4618 48.3877 21.4618C45.8758 21.4618 44.059 22.9693 43.1368 25.5967ZM36.2002 21.6537L30.452 38.0916H37.4963L38.3166 35.7442H33.8547L35.5385 30.9299H39.0841L39.9044 28.5824H36.3588L37.9583 24.0031H42.4202L43.2425 21.6556L36.2002 21.6537ZM20.9134 38.0916H24.9759C27.5583 38.0916 29.3732 36.729 30.2601 34.1936L30.7281 32.8544C31.3369 31.1159 31.2312 29.8726 30.035 29.3323C31.3741 28.7919 32.2689 27.7112 32.8601 26.0216L33.0637 25.4342C33.9506 22.8988 33.236 21.6537 30.5597 21.6537H26.6616L20.9134 38.0916ZM23.0161 53.4998L23.7797 51.3168H21.3363L20.516 53.6643C20.1048 54.839 19.4411 55.2618 18.6188 55.2618C17.7985 55.2618 17.4285 54.835 17.8396 53.6643L20.9428 44.7894C21.3539 43.6147 22.0274 43.1683 22.8497 43.1683C23.672 43.1683 24.0323 43.6166 23.6211 44.7894L23.0064 46.5475H25.4497L26.0077 44.9538C26.9279 42.3225 26.1369 40.8209 23.6015 40.8209C21.0661 40.8209 19.2238 42.3225 18.3036 44.9538L15.316 53.4998C14.3958 56.1311 15.1868 57.6328 17.7222 57.6328C20.2556 57.6347 22.0979 56.1311 23.0161 53.4998ZM31.3624 57.4429L37.1106 41.0049H34.4812L32.0183 48.0492H29.0815L31.5445 41.0049H28.9621L23.2139 57.4429H25.7963L28.2592 50.3947H31.196L28.733 57.4429H31.3624ZM42.2597 53.4998L45.2434 44.9538C46.1675 42.3225 45.3041 40.8209 42.7648 40.8209C40.2314 40.8209 38.3186 42.3225 37.4004 44.9538L34.4127 53.4998C33.4925 56.1311 34.354 57.6328 36.8894 57.6328C39.4248 57.6328 41.3376 56.1311 42.2597 53.4998ZM50.8781 41.0049H48.2977L42.5495 57.4429H45.1299L50.8781 41.0049ZM55.6944 53.4998C57.337 48.8049 52.5109 48.1686 53.6954 44.7894C54.1046 43.6147 54.7311 43.1683 55.5495 43.1683C56.3718 43.1683 56.685 43.6166 56.2719 44.7894L56.0389 45.4707H58.4784L58.6624 44.9538C59.5826 42.3225 58.8151 40.8209 56.3032 40.8209C53.7913 40.8209 51.9745 42.3225 51.0504 44.9538C49.4078 49.6487 54.2358 50.285 53.0513 53.6643C52.6401 54.839 51.9745 55.2618 51.1522 55.2618C50.3338 55.2618 49.9638 54.835 50.3749 53.6643L50.7841 52.4896H48.3427L47.9903 53.4998C47.0681 56.1311 47.8591 57.6328 50.3965 57.6328C52.9338 57.6328 54.7761 56.1311 55.6944 53.4998ZM68.5906 41.0049H61.5444L55.7981 57.4429H62.8444L63.6647 55.0993H59.2048L60.8865 50.285H64.4322L65.2545 47.9376H61.7069L63.3084 43.3602H67.7644L68.5906 41.0049Z" fill="url(#paint0_linear_211_9)"/>
</g>
<defs>
<linearGradient id="paint0_linear_211_9" x1="30.8792" y1="-1.17761e-07" x2="51.1216" y2="82.002" gradientUnits="userSpaceOnUse">
<stop stop-color="#9B00FF"/>
<stop offset="1" stop-color="#5D0099"/>
</linearGradient>
<clipPath id="clip0_211_9">
<rect width="82" height="82" fill="white"/>
</clipPath>
</defs>
</svg>
