<svg width="82" height="82" viewBox="0 0 82 82" fill="none" xmlns="http://www.w3.org/2000/svg">
<path d="M33.9692 2.81865C31.2626 3.53936 29.1485 5.70147 28.4278 8.44014C28.2356 9.20889 28.1876 10.9386 28.1876 18.7702V28.1874H18.7704C10.8267 28.1874 9.20908 28.2194 8.4083 28.4276C5.65361 29.1483 3.52354 31.2944 2.80283 34.0651C2.45049 35.4265 2.45049 46.6054 2.80283 47.9667C3.52354 50.7214 5.66963 52.8515 8.44033 53.5722C9.20908 53.7644 10.9388 53.8124 18.7704 53.8124H28.1876V63.2296C28.1876 71.0612 28.2356 72.7909 28.4278 73.5597C29.1485 76.3304 31.2786 78.4765 34.0333 79.1972C35.4267 79.5495 46.5735 79.5495 47.9669 79.1972C50.7216 78.4765 52.8517 76.3304 53.5724 73.5597C53.7646 72.7909 53.8126 71.0612 53.8126 63.2296V53.8124H63.2298C71.1735 53.8124 72.7911 53.7804 73.5919 53.5722C76.3466 52.8515 78.4767 50.7054 79.1974 47.9347C79.5497 46.5894 79.5497 35.4105 79.1974 34.0651C78.4767 31.2944 76.3466 29.1483 73.5919 28.4276C72.7911 28.2194 71.1735 28.1874 63.2298 28.1874H53.8126V18.7702C53.8126 10.9386 53.7646 9.20889 53.5724 8.44014C52.8517 5.66944 50.7216 3.52334 47.9669 2.80264C46.6216 2.46631 35.2665 2.46631 33.9692 2.81865Z" fill="url(#paint0_linear_211_20)"/>
<defs>
<linearGradient id="paint0_linear_211_20" x1="79.4616" y1="9.08565" x2="2.53858" y2="72.9281" gradientUnits="userSpaceOnUse">
<stop stop-color="#9B00FF"/>
<stop offset="1" stop-color="#5D0099"/>
</linearGradient>
</defs>
</svg>
