<svg width="82" height="82" viewBox="0 0 82 82" fill="none" xmlns="http://www.w3.org/2000/svg">
<path d="M2.56248 80.3601C2.32161 80.3601 2.08586 80.2653 1.91161 80.091C1.64511 79.8245 1.56823 79.4197 1.7143 79.0763L9.4018 61.1388C9.44792 61.0312 9.51455 60.9312 9.59911 60.8492L67.7807 2.66511C68.4367 2.00654 69.3131 1.64523 70.2432 1.64523C71.1734 1.64523 72.0524 2.00654 72.7109 2.66511L79.3375 9.29173C80.6931 10.6499 80.6931 12.8587 79.3375 14.2194L21.1509 72.4035C21.0689 72.4855 20.9715 72.5522 20.8613 72.5983L2.9238 80.2858C2.80848 80.337 2.68548 80.3601 2.56248 80.3601ZM6.33448 72.9801L4.32036 77.6797L9.01742 75.6656L6.33448 72.9801ZM7.11605 71.1556L10.8445 74.8866L19.5775 71.1428V67.5476H15.375C14.865 67.5476 14.4525 67.135 14.4525 66.6251V62.4226H10.8573L7.11605 71.1556ZM16.2975 65.7026H20.5C21.0099 65.7026 21.4225 66.1152 21.4225 66.6251V69.5233L66.6019 24.3439L57.6562 15.3982L12.4768 60.5776H15.375C15.8849 60.5776 16.2975 60.9902 16.2975 61.5001V65.7026ZM58.9631 14.0939L67.9062 23.0395L70.4457 20.5001L61.5 11.5544L58.9631 14.0939ZM62.8069 10.2501L71.75 19.1958L78.0307 12.9151C78.6687 12.2745 78.6687 11.2341 78.0307 10.596L71.404 3.96942C71.094 3.65936 70.684 3.48767 70.2458 3.48767C69.8076 3.48767 69.395 3.65936 69.0875 3.96942L62.8069 10.2501ZM66.625 80.3601C66.3892 80.3601 66.1509 80.2704 65.9716 80.091L42.9091 57.0285L44.2134 55.7217L47.4037 58.9145L53.1565 53.1592L54.4634 54.466L48.7106 60.2189L53.8125 65.3208L57.0028 62.1279L58.3097 63.4348L55.1168 66.6251L60.2187 71.727L65.9716 65.9717L67.2784 67.2785L61.5231 73.0314L66.625 78.1333L78.1332 66.6251L55.7216 44.216L57.0284 42.9117L80.0909 65.9742C80.4522 66.3355 80.4522 66.9198 80.0909 67.2811L67.2784 80.0936C67.099 80.2704 66.8607 80.3601 66.625 80.3601ZM22.4321 60.8723L21.1278 59.5654L58.2841 22.4092L59.5909 23.7135L22.4321 60.8723ZM24.9741 39.0885L1.91161 16.026C1.5503 15.6647 1.5503 15.083 1.91161 14.7217L14.7241 1.90917C15.0854 1.54786 15.6671 1.54786 16.0284 1.90917L39.0909 24.9717L37.7866 26.276L15.375 3.86692L3.8668 15.3751L8.96873 20.477L14.7241 14.7242L16.0284 16.0285L10.273 21.7814L15.375 26.8833L18.5679 23.693L19.8722 24.9973L16.6793 28.1876L21.7812 33.2895L27.5366 27.5367L28.8409 28.841L23.0855 34.5939L26.2759 37.7867L24.9741 39.0885Z" fill="url(#paint0_linear_211_6)" stroke="url(#paint1_linear_211_6)" stroke-width="0.3"/>
<defs>
<linearGradient id="paint0_linear_211_6" x1="80.3619" y1="6.16895" x2="1.64062" y2="75.8293" gradientUnits="userSpaceOnUse">
<stop stop-color="#9B00FF"/>
<stop offset="1" stop-color="#5D0099"/>
</linearGradient>
<linearGradient id="paint1_linear_211_6" x1="80.3619" y1="7.89201" x2="1.64062" y2="74.1063" gradientUnits="userSpaceOnUse">
<stop stop-color="#9B00FF"/>
<stop offset="1" stop-color="#5D0099"/>
</linearGradient>
</defs>
</svg>
