<svg width="82" height="82" viewBox="0 0 82 82" fill="none" xmlns="http://www.w3.org/2000/svg">
<g clip-path="url(#clip0_211_12)">
<path d="M56.7913 8.72845C56.1186 8.96869 53.4921 11.4191 53.0757 12.2038C52.8194 12.7003 52.7874 13.9015 53.0116 14.2538C53.1237 14.446 51.9706 15.6952 47.5182 20.1476L41.8807 25.7851L41.16 25.689C40.135 25.5609 39.4303 25.8972 38.101 27.1785L36.98 28.2515L35.5225 26.7941L34.0651 25.3367L34.6577 24.648C35.3624 23.8152 35.6346 22.9984 35.4745 22.1656C35.3944 21.6691 35.0421 21.2206 33.7448 19.8913C31.1022 17.2007 30.6217 17.2488 27.4987 20.3238C26.3616 21.4288 25.3366 22.5339 25.2085 22.7742C24.9522 23.2706 24.9202 24.2956 25.1444 24.8882C25.3366 25.4007 27.3385 27.5148 28.1874 28.1074C29.3245 28.8921 30.7659 28.6519 31.871 27.4667L32.2553 27.0503L33.7448 28.5398L35.2342 30.0292L34.1772 31.0863L33.1202 32.1433L32.5436 31.9351C31.8069 31.6628 31.0542 31.6628 30.2053 31.9031C29.6448 32.0632 28.2675 33.3605 20.5319 41.064C15.5671 46.0128 11.371 50.305 11.2108 50.6093C10.5221 51.9546 10.7143 53.412 11.7874 54.7093L12.38 55.446L9.00065 58.8253C6.10183 61.7562 5.60534 62.3167 5.44518 62.9253C5.23698 63.6941 5.33308 64.5749 5.70143 65.2636L5.94167 65.712L2.96276 68.707C-0.0481752 71.7659 -0.208331 71.9742 0.0959654 72.7909C0.256122 73.2074 1.10495 73.5117 1.60143 73.3195C1.82565 73.2394 3.28308 71.9101 4.83659 70.3406L7.67136 67.5218L8.24792 67.7941C8.95261 68.1304 10.2339 68.1464 10.9385 67.8421C11.435 67.6179 12.8925 66.2726 16.3678 62.8292L18.0655 61.1316L18.61 61.58C19.8272 62.605 21.4128 62.8933 22.662 62.3167C23.0784 62.1245 24.712 60.6031 27.2104 58.0886C31.0221 54.2449 31.1182 54.1488 31.0061 53.6202C30.878 52.9636 30.6378 52.7234 29.9811 52.5952C29.4686 52.4992 29.3725 52.5792 27.1784 54.7413L24.9042 57.0156L20.66 52.7714L16.4159 48.5273L23.6229 41.3202C29.853 35.0902 30.894 34.1132 31.3104 34.1132C31.7108 34.1132 32.3354 34.6738 35.5385 37.8609C38.8538 41.1761 39.2862 41.6726 39.2862 42.121C39.2862 42.5695 38.9018 43.0179 35.987 45.9327C33.0401 48.8796 32.6717 49.312 32.6717 49.7765C32.6717 50.4492 33.1522 50.9296 33.8409 50.9296C34.3053 50.9296 34.7217 50.5613 37.7487 47.5183C39.6065 45.6605 41.2561 43.8827 41.4003 43.5784C41.7366 42.9218 41.7686 41.5605 41.4964 40.8718C41.3682 40.5835 41.3042 40.3113 41.3522 40.2792C41.3843 40.2472 42.5694 41.3523 43.9628 42.7617L46.5093 45.3242L45.9968 45.8527C45.3721 46.4933 45.3081 47.23 45.8366 47.7265C46.3491 48.1909 46.9737 48.1269 47.6464 47.5343L48.2389 47.0378L52.4831 51.298L56.7432 55.5421L56.2468 56.1347C54.9495 57.5921 56.4389 59.0816 57.8964 57.7843L58.4729 57.2878L59.8663 58.6652C61.3077 60.0906 61.7882 60.3788 62.7171 60.3788C63.646 60.3788 64.2386 60.0105 65.68 58.521C67.2815 56.8554 67.5538 56.2788 67.2655 55.1257L67.0893 54.389L71.5417 49.9527L75.994 45.5003L76.6346 45.6765C77.8198 45.9968 78.3643 45.7726 79.9499 44.2351C82.6565 41.6406 82.6886 40.7437 80.1901 38.2933L78.8128 36.932L79.3573 36.3234C80.03 35.6027 80.078 35.0581 79.5175 34.5136C78.9729 33.9531 78.4284 34.0011 77.7077 34.6738L77.0991 35.2183L75.9139 34.0331C74.8729 32.9761 74.6487 32.832 74.1362 32.832C73.4155 32.832 73.0311 33.2324 73.0311 33.9691C73.0311 34.4656 73.3354 34.8019 76.3464 37.8288L79.6776 41.1601L78.5085 42.3132L77.3554 43.4824L66.9452 33.0722L56.535 22.662L57.6882 21.5089L58.8573 20.3398L64.2225 25.689C67.1694 28.6359 69.7479 31.0863 69.9241 31.1343C70.6929 31.3585 71.6057 30.4296 71.3655 29.6769C71.3175 29.5167 70.6608 28.78 69.9241 28.0433L68.5628 26.682L69.1073 26.0734C69.78 25.3527 69.828 24.8081 69.2675 24.2636C68.7229 23.7031 68.1784 23.7511 67.4577 24.4077L66.8491 24.9683L64.4147 22.5339C63.0694 21.1886 61.9803 20.0195 61.9803 19.9394C61.9803 19.8433 62.5249 19.2347 63.1975 18.5781C63.8542 17.9214 64.5108 17.1847 64.6389 16.9445C64.9432 16.3679 64.9272 15.487 64.6069 14.8464C64.3026 14.2378 59.562 9.40111 58.8573 8.9847C58.1686 8.5683 57.512 8.48822 56.7913 8.72845ZM60.0264 13.5011L62.4608 15.9355L61.2917 17.1046L60.1385 18.2577L57.6561 15.7753L55.1737 13.2929L56.2948 12.1718C56.9034 11.5632 57.4479 11.0507 57.496 11.0507C57.544 11.0507 58.6811 12.1558 60.0264 13.5011ZM56.0225 17.505L57.1757 18.6581L51.6022 24.2316L46.0448 29.789L44.8436 28.5878L43.6425 27.3867L49.1678 21.8613C52.2108 18.8183 54.7253 16.3359 54.7733 16.3359C54.8214 16.3359 55.3819 16.8644 56.0225 17.505ZM31.3905 24.4238L29.6288 26.1855L28.4757 25.0163L27.3065 23.8632L29.0682 22.1015L30.83 20.3398L31.9831 21.4929L33.1522 22.662L31.3905 24.4238ZM53.8604 32.2234L49.4081 36.6757L48.303 35.5706L47.1979 34.4656L47.4702 33.873C47.6624 33.4726 47.7425 33.0081 47.6944 32.4156L47.6464 31.5507L51.2499 27.9472L54.8534 24.3437L56.5671 26.0574L58.2968 27.787L53.8604 32.2234ZM43.1139 30.2214C44.3311 31.4226 45.3241 32.5277 45.3241 32.6558C45.3241 32.9281 39.9108 38.4374 39.6385 38.4374C39.5585 38.4374 38.4534 37.4124 37.2042 36.1632L34.9139 33.873L37.8288 30.9581C39.4464 29.3406 40.7917 28.0273 40.8237 28.0273C40.8557 28.0273 41.8968 29.0202 43.1139 30.2214ZM62.0604 31.5507L63.9823 33.4726L62.1725 35.2663L60.3788 37.0761L58.3768 35.0742L56.3749 33.0722L58.0885 31.3585C59.0335 30.3976 59.8823 29.6288 59.9784 29.6288C60.0745 29.6288 61.0034 30.4937 62.0604 31.5507ZM56.7753 36.8359L58.6971 38.7577L56.8874 40.5515L55.0936 42.3613L53.0917 40.3593L51.0897 38.3574L52.8034 36.6437C53.7483 35.6827 54.5971 34.914 54.6932 34.914C54.7893 34.914 55.7182 35.7788 56.7753 36.8359ZM64.1104 42.4734L59.6581 46.9257L58.2647 45.5324L56.8553 44.123L61.2917 39.6867L65.744 35.2343L67.1374 36.6277L68.5468 38.037L64.1104 42.4734ZM55.2538 45.9968L65.0233 55.7984L63.9503 56.8874C63.3577 57.496 62.7971 57.9765 62.701 57.9765C62.621 57.9765 58.1686 53.6042 52.8194 48.255L43.0819 38.5175L44.235 37.3644C44.8757 36.7238 45.4202 36.1952 45.4362 36.1952C45.4682 36.1952 49.8725 40.6156 55.2538 45.9968ZM72.2784 41.7687C73.3034 42.7937 74.1522 43.7226 74.1522 43.8027C74.1522 43.8827 73.3835 44.7316 72.4386 45.6765L70.7089 47.4062L68.6749 45.3722L66.6249 43.3222L68.3386 41.6085C69.2835 40.6476 70.1323 39.8788 70.2284 39.8788C70.3245 39.8788 71.2374 40.7277 72.2784 41.7687ZM66.9932 47.0538C68.0182 48.0788 68.8671 49.0077 68.8671 49.0878C68.8671 49.1679 68.0983 50.0167 67.1534 50.9617L65.4237 52.6913L63.3897 50.6574L61.3397 48.6074L63.0534 46.8937C63.9983 45.9327 64.8471 45.164 64.9432 45.164C65.0393 45.164 65.9522 46.0128 66.9932 47.0538ZM19.0264 54.5011L23.2385 58.7132L22.4378 59.4659C21.1245 60.6992 21.3007 60.7792 16.9284 56.407C14.8464 54.3089 13.1327 52.4992 13.1327 52.387C13.1327 52.2749 13.2128 52.0347 13.3089 51.8425C13.501 51.4742 14.5741 50.289 14.7342 50.289C14.7823 50.289 16.7042 52.1788 19.0264 54.5011ZM15.2467 58.2488L16.3358 59.3378L13.1807 62.4929C10.6663 65.0074 9.92956 65.664 9.59323 65.664C9.11276 65.664 7.68737 64.2706 7.68737 63.7902C7.68737 63.5659 13.8534 57.1757 14.0776 57.1757C14.1257 57.1757 14.6542 57.6562 15.2467 58.2488Z" fill="url(#paint0_linear_211_12)"/>
</g>
<defs>
<linearGradient id="paint0_linear_211_12" x1="79.3484" y1="8.59415" x2="2.66261" y2="73.3784" gradientUnits="userSpaceOnUse">
<stop stop-color="#9B00FF"/>
<stop offset="1" stop-color="#5D0099"/>
</linearGradient>
<clipPath id="clip0_211_12">
<rect width="82" height="82" fill="white"/>
</clipPath>
</defs>
</svg>
