<svg width="82" height="82" viewBox="0 0 82 82" fill="none" xmlns="http://www.w3.org/2000/svg">
<path d="M5.44549 12.4281C4.96502 12.5562 4.50057 12.7324 4.40448 12.8285C4.2283 13.0046 39.0142 47.9027 39.751 48.3031C40.3115 48.5914 41.6889 48.5914 42.2494 48.3031C42.9861 47.9027 77.772 13.0046 77.5959 12.8285C77.4998 12.7324 77.0033 12.5562 76.4748 12.4281C75.626 12.2039 71.7021 12.1718 40.9201 12.1878C10.9549 12.1878 6.21424 12.2199 5.44549 12.4281Z" fill="url(#paint0_linear_223_14)"/>
<path d="M0.368359 17.1688C0.0960937 17.9695 0.0800781 19.1387 0.0800781 41C0.0800781 62.8613 0.0960937 64.0305 0.368359 64.8152C0.528516 65.2797 0.720703 65.6641 0.76875 65.6641C0.832812 65.6641 6.43828 60.1066 13.2129 53.332L25.5449 41L13.2129 28.668C6.43828 21.8773 0.832812 16.3359 0.76875 16.3359C0.720703 16.3359 0.528516 16.7203 0.368359 17.1688Z" fill="url(#paint1_linear_223_14)"/>
<path d="M68.7871 28.668L56.4551 41L68.7871 53.332C75.5617 60.1066 81.1672 65.6641 81.2312 65.6641C81.2793 65.6641 81.4715 65.2797 81.6316 64.8152C81.9039 64.0305 81.9199 62.8613 81.9199 41C81.9199 19.1387 81.9039 17.9695 81.6316 17.1688C81.4715 16.7203 81.2793 16.3359 81.2312 16.3359C81.1672 16.3359 75.5617 21.8773 68.7871 28.668Z" fill="url(#paint2_linear_223_14)"/>
<path d="M16.4962 56.7754C8.56848 64.7031 4.30833 69.0754 4.40442 69.1715C4.50052 69.2676 4.997 69.4438 5.52552 69.5719C6.37434 69.7961 10.3142 69.8281 41.0001 69.8281C71.6861 69.8281 75.6259 69.7961 76.4747 69.5719C77.0032 69.4438 77.4997 69.2676 77.5958 69.1715C77.6919 69.0754 73.4318 64.7031 65.472 56.7434L53.188 44.4594L49.3763 48.223C45.8849 51.6824 45.4525 52.0508 44.2993 52.6273L43.0181 53.252H41.0001H38.9822L37.7009 52.6273C36.5478 52.0508 36.0993 51.6664 32.656 48.2551C30.59 46.2051 28.8603 44.5234 28.8122 44.5234C28.7802 44.5234 23.2388 50.0328 16.4962 56.7754Z" fill="url(#paint3_linear_223_14)"/>
<defs>
<linearGradient id="paint0_linear_223_14" x1="71.4761" y1="12.1843" x2="28.6276" y2="63.6047" gradientUnits="userSpaceOnUse">
<stop stop-color="#9B00FF"/>
<stop offset="1" stop-color="#5D0099"/>
</linearGradient>
<linearGradient id="paint1_linear_223_14" x1="23.4155" y1="16.3359" x2="-9.81769" y2="26.5565" gradientUnits="userSpaceOnUse">
<stop stop-color="#9B00FF"/>
<stop offset="1" stop-color="#5D0099"/>
</linearGradient>
<linearGradient id="paint2_linear_223_14" x1="79.7905" y1="16.3359" x2="46.5573" y2="26.5565" gradientUnits="userSpaceOnUse">
<stop stop-color="#9B00FF"/>
<stop offset="1" stop-color="#5D0099"/>
</linearGradient>
<linearGradient id="paint3_linear_223_14" x1="71.4768" y1="44.4594" x2="45.0359" y2="89.9071" gradientUnits="userSpaceOnUse">
<stop stop-color="#9B00FF"/>
<stop offset="1" stop-color="#5D0099"/>
</linearGradient>
</defs>
</svg>
