<svg width="74" height="98" viewBox="0 0 74 98" fill="none" xmlns="http://www.w3.org/2000/svg">
<path fill-rule="evenodd" clip-rule="evenodd" d="M54.6501 84.4908C50.141 89.4604 44.9452 93.7605 39.2201 97.2608C38.8645 97.5261 38.4361 97.676 37.9926 97.6903C37.5492 97.7046 37.1121 97.5826 36.7401 97.3408C28.5703 92.1932 21.3144 85.7214 15.2701 78.1908C7.45008 68.3808 2.53008 57.5008 0.840077 47.0008C-0.869923 36.4008 0.730077 26.1808 6.00008 17.8708C8.15225 14.4878 10.8564 11.4896 14.0001 9.00084C21.4701 3.08084 30.0001 -0.0591559 38.4701 0.000844096C47.1234 0.130598 55.4103 3.51534 61.6801 9.48084C64.0939 11.6799 66.1816 14.2121 67.8801 17.0008C73.5601 26.3708 74.7901 38.3108 72.2901 50.4108C69.5166 63.1034 63.4302 74.8347 54.6501 84.4109V84.4908ZM36.8501 18.8908C40.4596 18.8908 43.988 19.9612 46.9892 21.9665C49.9904 23.9719 52.3296 26.8221 53.7109 30.1569C55.0922 33.4916 55.4536 37.1611 54.7494 40.7012C54.0452 44.2414 52.3071 47.4932 49.7548 50.0455C47.2025 52.5979 43.9506 54.336 40.4105 55.0402C36.8703 55.7444 33.2009 55.3829 29.8661 54.0016C26.5314 52.6203 23.6811 50.2812 21.6758 47.28C19.6704 44.2788 18.6001 40.7504 18.6001 37.1408C18.5988 34.7438 19.0699 32.3701 19.9866 30.1553C20.9033 27.9405 22.2475 25.9281 23.9424 24.2332C25.6374 22.5383 27.6498 21.194 29.8645 20.2774C32.0793 19.3607 34.4531 18.8895 36.8501 18.8908Z" fill="#9B00FF"/>
</svg>
