<svg width="70" height="82" viewBox="0 0 70 82" fill="none" xmlns="http://www.w3.org/2000/svg">
<g clip-path="url(#clip0_223_20)">
<path d="M32.0605 0.130807C23.789 1.03464 16.4746 5.18704 12.0996 11.4615C6.6992 19.2161 6.42576 27.8615 11.2109 39.3624C13.8086 45.5976 18.3066 53.2474 23.7617 60.7139C26.0586 63.8576 29.4355 68.1279 30.2285 68.8615C32.8672 71.3503 37.1328 71.3503 39.7715 68.8746C41.1113 67.6171 46.539 60.4781 49.4512 56.1292C57.6406 43.9209 61.8242 33.9656 62.166 25.8704C62.3301 21.7573 61.5781 18.2337 59.7324 14.5529C56 7.0864 48.6445 1.87298 39.7851 0.392788C37.8437 0.0784108 33.8652 -0.0656787 32.0605 0.130807ZM39.1699 7.85924C42.957 8.63209 46.1152 10.204 48.7812 12.6273C51.7207 15.3257 53.539 18.5481 54.2226 22.2682C54.4824 23.7484 54.4277 26.7743 54.0859 28.5557C52.6367 36.0746 47.6601 45.8072 39.6621 56.7056C37.8301 59.1944 35.0957 62.7311 35 62.7311C34.959 62.7311 34.2617 61.8666 33.4277 60.8056C21.957 46.0822 15.5859 33.2321 15.5859 24.8618C15.5859 16.1771 22.6816 8.89407 32.4023 7.59726C33.8926 7.40078 37.6113 7.54486 39.1699 7.85924Z" fill="url(#paint0_linear_223_20)"/>
<path d="M32.6071 15.1554C28.0953 16.0723 24.5407 19.5043 23.5836 23.8401C23.3102 25.0583 23.3239 27.1279 23.5973 28.3985C24.445 32.3675 27.7125 35.7209 31.8551 36.8605C34.3981 37.5678 37.734 37.2666 40.1266 36.127C41.9723 35.2362 43.9684 33.494 44.9528 31.9222C48.2614 26.6301 46.5387 19.8317 41.0836 16.5701C38.6774 15.1292 35.3961 14.579 32.6071 15.1554ZM36.5719 22.7135C38.4176 23.5257 39.2789 25.5167 38.609 27.403C38.1168 28.8046 36.6266 29.787 34.9996 29.787C30.8707 29.787 29.6676 24.4164 33.4274 22.7135C34.3707 22.2813 35.6285 22.2813 36.5719 22.7135Z" fill="url(#paint1_linear_223_20)"/>
<path d="M11.3475 56.1162C6.20685 58.1203 2.52912 60.7925 0.956851 63.6743C-0.984556 67.2242 0.122866 70.905 4.07404 74.0488C12.4276 80.7162 30.8436 83.6635 47.5096 81.0043C53.7029 80.0219 59.4725 78.1357 63.3553 75.8171C64.8318 74.9395 66.5408 73.6558 67.3338 72.8043C72.3787 67.473 70.0818 61.5392 61.3182 57.282C59.5682 56.4305 57.2166 55.5005 57.0115 55.566C56.8885 55.6053 52.869 61.9714 52.9373 62.0107C52.9647 62.0238 53.6209 62.2596 54.4139 62.5347C56.3279 63.1897 58.9666 64.4341 60.0467 65.1807C61.1815 65.9797 62.0701 66.805 62.0701 67.0801C62.0701 67.4337 60.3748 68.8484 59.0213 69.6082C54.9881 71.8874 49.1639 73.4462 41.8358 74.2321C38.8553 74.5465 31.1443 74.5465 28.1639 74.2321C20.8221 73.4462 14.7518 71.8088 10.8279 69.5296C9.52912 68.7829 7.92951 67.4206 7.92951 67.067C7.92951 66.7264 9.44709 65.4558 10.7733 64.6829C12.0311 63.9625 14.2322 62.9932 15.9276 62.4168C16.5291 62.2072 17.035 62.0369 17.0623 62.0107C17.158 61.9452 13.0975 55.6053 12.9471 55.5791C12.8514 55.566 12.1404 55.8018 11.3475 56.1162Z" fill="url(#paint2_linear_223_20)"/>
</g>
<defs>
<linearGradient id="paint0_linear_223_20" x1="62.1879" y1="9.88221" x2="3.19135" y2="54.8058" gradientUnits="userSpaceOnUse">
<stop stop-color="#9B00FF"/>
<stop offset="1" stop-color="#5D0099"/>
</linearGradient>
<linearGradient id="paint1_linear_223_20" x1="46.634" y1="18.0361" x2="27.3277" y2="37.9554" gradientUnits="userSpaceOnUse">
<stop stop-color="#9B00FF"/>
<stop offset="1" stop-color="#5D0099"/>
</linearGradient>
<linearGradient id="paint2_linear_223_20" x1="69.9704" y1="59.2401" x2="54.7411" y2="99.1695" gradientUnits="userSpaceOnUse">
<stop stop-color="#9B00FF"/>
<stop offset="1" stop-color="#5D0099"/>
</linearGradient>
<clipPath id="clip0_223_20">
<rect width="70" height="82" fill="white"/>
</clipPath>
</defs>
</svg>
