<svg width="82" height="82" viewBox="0 0 82 82" fill="none" xmlns="http://www.w3.org/2000/svg">
<path d="M13.0526 1.12097C11.2749 1.47331 9.38506 2.59441 8.31201 3.9237C8.03975 4.27605 7.57529 5.02878 7.30303 5.60535L6.80654 6.64636L6.7585 40.6796C6.72647 78.044 6.6624 75.4815 7.65537 77.1792C8.68037 78.9409 10.9386 80.4784 13.0366 80.8628C13.6772 80.9909 19.9714 81.0389 32.4956 81.0389C52.7394 81.0389 52.0187 81.071 53.9405 80.094C55.6702 79.2132 56.9355 77.8038 57.6882 75.93C58.0245 75.0811 58.0405 74.7448 58.1366 68.9792L58.2167 62.9253L59.8823 62.3807C64.5589 60.8112 68.755 57.6241 71.4296 53.6202C72.7429 51.6503 73.4155 50.2889 74.1522 48.0628C74.969 45.5964 75.2733 43.6745 75.2733 40.9999C75.2733 34.8819 73.0312 29.4526 68.7069 25.1444C66.0804 22.5178 63.1815 20.7241 59.8343 19.619L58.2167 19.0905L58.1206 13.1167C58.0245 6.39011 58.0085 6.22995 56.8233 4.48425C56.1187 3.4112 54.9976 2.45027 53.7804 1.82566C52.0347 0.944799 52.5632 0.960814 32.3515 0.97683C22.0854 0.992845 13.405 1.05691 13.0526 1.12097ZM52.387 4.0198C53.6042 4.59636 54.5171 5.4612 55.0456 6.53425L55.494 7.44714L55.5421 13.0046L55.5901 18.578H54.8694H54.1327V16.2397V13.9014L53.6683 13.437L53.2038 12.9725H32.3835H11.5792L11.1468 13.3089L10.7304 13.6292V41.8807V70.1323L11.1468 70.4526L11.5792 70.7889H32.4155C53.1878 70.7889 53.2679 70.7889 53.6202 70.4686C53.8124 70.2764 53.9886 70.1163 54.0046 70.1003C54.0206 70.0843 54.0687 68.5948 54.1167 66.785L54.2128 63.5018L54.9015 63.4538L55.5901 63.4057L55.5421 68.9792C55.494 74.3925 55.478 74.5686 55.1257 75.3534C54.6292 76.4425 53.6362 77.4034 52.4671 77.9479L51.4901 78.3964H32.3515H13.2128L12.1397 77.8678C11.4831 77.5475 10.8265 77.0671 10.4261 76.6186C9.19287 75.2093 9.28897 78.2843 9.28897 41.0319C9.28897 16.6882 9.33701 7.47917 9.46514 7.04675C9.89756 5.62136 11.6433 4.05183 13.1968 3.69949C13.5812 3.61941 21.5409 3.57136 32.6718 3.57136L51.4901 3.60339L52.387 4.0198ZM51.5382 17.0085L51.4901 18.4819L49.9526 18.6741C40.3433 19.8753 32.5757 27.1624 30.6378 36.7878C30.2374 38.7577 30.2374 43.2421 30.6378 45.212C32.4956 54.405 39.7987 61.612 48.8476 63.1655C49.6804 63.3096 50.6253 63.4378 50.9296 63.4538L51.4901 63.5018L51.5382 65.8561L51.5862 68.2264H32.4315H13.2929V41.8807V15.535H32.4315H51.5862L51.5382 17.0085ZM56.7272 21.4768C60.6831 22.2616 63.9022 24.0073 66.8812 26.9702C70.7249 30.7979 72.7108 35.5706 72.7108 40.9999C72.7108 48.5272 68.5628 55.3178 61.8843 58.7292C58.8253 60.2987 56.1026 60.9393 52.6112 60.9073C44.9878 60.8753 38.3093 56.6471 34.914 49.7284C34.3854 48.6714 33.8089 47.262 33.6327 46.6053C32.2714 41.6886 32.6878 36.8518 34.8179 32.4315C37.4765 26.9542 42.0409 23.1905 47.9026 21.685C50.7855 20.9323 53.6683 20.8682 56.7272 21.4768Z" fill="url(#paint0_linear_223_2)"/>
<path d="M21.493 6.4543C20.7883 7.19102 21.2047 9.04883 22.3098 10.234C22.5981 10.5223 23.1907 10.9387 23.6231 11.1469L24.4239 11.5312H32.2876C37.8129 11.5312 40.3114 11.4832 40.6958 11.3391C41.5446 11.0668 42.3614 10.4102 42.9379 9.56133C43.3704 8.93672 43.4825 8.58438 43.5305 7.76758C43.5946 6.90273 43.5465 6.71055 43.2583 6.42227C42.8899 6.05391 42.1372 5.97383 41.6407 6.24609C41.3684 6.39023 41.1602 6.8707 40.936 7.8957C40.8719 8.15195 40.6157 8.47227 40.3114 8.64844C39.8149 8.95273 39.4786 8.96875 32.3836 8.96875C25.7372 8.96875 24.9044 8.93672 24.504 8.69648C23.9915 8.4082 23.7032 7.87969 23.7032 7.27109C23.7032 6.24609 22.1977 5.70156 21.493 6.4543Z" fill="url(#paint1_linear_223_2)"/>
<path d="M30.1895 73.752C29.9332 73.9922 29.7891 74.3285 29.7891 74.6328C29.7891 74.9371 29.9332 75.2734 30.1895 75.5137C30.5578 75.898 30.6859 75.9141 32.3516 75.9141C34.0172 75.9141 34.1453 75.898 34.5137 75.5137C34.7699 75.2734 34.9141 74.9371 34.9141 74.6328C34.9141 74.3285 34.7699 73.9922 34.5137 73.752C34.1453 73.3676 34.0172 73.3516 32.3516 73.3516C30.6859 73.3516 30.5578 73.3676 30.1895 73.752Z" fill="url(#paint2_linear_223_2)"/>
<path d="M44.3473 24.5678C42.1532 25.1604 40.5196 27.0022 39.8629 29.6288C39.5426 30.862 39.5907 34.0331 39.943 35.7147C40.5676 38.6776 41.9129 42.0089 43.6746 44.9718C46.7657 50.1608 51.6024 54.8534 55.7024 56.6311C60.0586 58.537 63.8703 57.6721 65.5039 54.405C66.0645 53.2839 66.1125 52.435 65.6801 51.4901C65.3278 50.7054 60.2348 45.7085 59.4661 45.3882C58.7133 45.0679 57.7364 45.1159 55.8305 45.5643C54.9016 45.7886 54.0848 45.9647 54.0207 45.9647C53.6203 45.9647 50.6414 41.7686 49.3922 39.4624L48.7836 38.3413L49.8407 36.8198C51.8426 33.937 51.8426 33.8889 50.2731 29.885C48.9278 26.4897 48.5274 25.6729 48.0149 25.1925C47.15 24.3917 45.8368 24.1675 44.3473 24.5678ZM46.3493 27.2585C46.6375 27.7229 48.8477 33.2483 48.8477 33.5206C48.8477 33.6327 48.3032 34.5136 47.6465 35.4585C46.2692 37.4764 46.045 38.021 46.2692 38.8378C46.8297 40.8718 51.4262 47.5663 52.7395 48.287C53.3801 48.6233 54.1649 48.5753 56.6633 48.0468L58.4571 47.6464L60.9715 50.1608L63.47 52.6593L63.2618 53.1557C62.9895 53.8284 61.9645 54.7093 61.2278 54.9175C56.9516 56.1026 49.6965 50.5292 45.3723 42.7296C41.3684 35.5386 41.1121 28.4436 44.7797 27.1464C45.6766 26.8261 46.077 26.8581 46.3493 27.2585Z" fill="url(#paint3_linear_223_2)"/>
<defs>
<linearGradient id="paint0_linear_223_2" x1="75.2733" y1="12.7235" x2="6.74414" y2="69.2881" gradientUnits="userSpaceOnUse">
<stop stop-color="#9B00FF"/>
<stop offset="1" stop-color="#5D0099"/>
</linearGradient>
<linearGradient id="paint1_linear_223_2" x1="43.5556" y1="6.8838" x2="41.3051" y2="15.8127" gradientUnits="userSpaceOnUse">
<stop stop-color="#9B00FF"/>
<stop offset="1" stop-color="#5D0099"/>
</linearGradient>
<linearGradient id="paint2_linear_223_2" x1="34.9141" y1="73.7276" x2="33.0885" y2="77.2487" gradientUnits="userSpaceOnUse">
<stop stop-color="#9B00FF"/>
<stop offset="1" stop-color="#5D0099"/>
</linearGradient>
<linearGradient id="paint3_linear_223_2" x1="65.9691" y1="29.2546" x2="38.0062" y2="50.5975" gradientUnits="userSpaceOnUse">
<stop stop-color="#9B00FF"/>
<stop offset="1" stop-color="#5D0099"/>
</linearGradient>
</defs>
</svg>
